C:\GBW_MyPrograms\KinderuniversiteitApp\Resultaten\Ellis_v10102025\Jullie_lengte\Jullie_lengte_v8.mot
version=1
nRows=16
nColumns=29
inDegrees=yes
endheader
                time	         pelvis_tilt	           pelvis_tx	           pelvis_ty	       hip_flexion_l	       hip_flexion_r	        knee_angle_l	        knee_angle_r	       ankle_angle_l	       ankle_angle_r	    lumbar_extension	hamstrings_r/activation	bifemsh_r/activation	glut_max_r/activation	iliopsoas_r/activation	rect_fem_r/activation	  vasti_r/activation	gastroc_r/activation	 soleus_r/activation	tib_ant_r/activation	hamstrings_l/activation	bifemsh_l/activation	glut_max_l/activation	iliopsoas_l/activation	rect_fem_l/activation	  vasti_l/activation	gastroc_l/activation	 soleus_l/activation	tib_ant_l/activation	
          1.57320346	         -4.59826667	          1.32587921	          0.67265240	         29.09206646	        -11.56690815	        -12.12239366	         -9.49791539	          9.16365411	          8.24030929	         -1.61619634	          0.05000133	          0.12700149	          0.05000781	          0.38393553	          0.05000367	          0.05000120	          0.19700112	          0.25272060	          0.05000025	          0.12414281	          0.05000369	          0.05001599	          0.05000096	          0.05664071	          0.05000175	          0.05442739	          0.05000075	          0.21875016	
          1.58369149	         -4.64420928	          1.33752664	          0.67222338	         28.08786683	        -11.28215224	        -11.73340679	        -11.75404593	          8.92204567	          7.60434289	         -1.15776476	          0.05000180	          0.10810494	          0.07663022	          0.35271110	          0.05000271	          0.05000098	          0.16768908	          0.22951919	          0.05000030	          0.10567221	          0.05429754	          0.05000324	          0.05000227	          0.05000357	          0.05000209	          0.06627739	          0.05976507	          0.21154720	
          1.59417951	         -4.68156896	          1.34941453	          0.67178870	         27.04193370	        -10.87287088	        -11.67199581	        -14.26054170	          8.70654801	          6.79545691	         -0.66797603	          0.05000412	          0.09202005	          0.11188899	          0.30662351	          0.05000114	          0.05000065	          0.14273840	          0.19536883	          0.05000019	          0.08995096	          0.06898893	          0.05871352	          0.05000065	          0.05000082	          0.05547716	          0.05716903	          0.05087464	          0.22447907	
          1.60466753	         -4.71316100	          1.36131263	          0.67149963	         26.07107991	        -10.32349669	        -11.73319459	        -16.97720471	          8.40498861	          5.71437898	         -0.18178099	          0.05000164	          0.07832851	          0.09524123	          0.28472820	          0.05000224	          0.05086301	          0.12150016	          0.16629963	          0.05000014	          0.07656744	          0.05872897	          0.10218813	          0.05000055	          0.05000120	          0.11336589	          0.05000435	          0.05000148	          0.24893787	
          1.61515556	         -4.74198363	          1.37297563	          0.67158523	         25.24057842	         -9.57688349	        -11.99094507	        -19.91952933	          8.10538969	          4.21981045	          0.26394755	          0.05000156	          0.06667435	          0.08107028	          0.26030309	          0.05000235	          0.05000097	          0.10342199	          0.14155567	          0.05000217	          0.06517674	          0.05000619	          0.12261837	          0.05000060	          0.05000156	          0.16836367	          0.05000234	          0.05000166	          0.26480467	
          1.62564358	         -4.76956112	          1.38428102	          0.67211566	         24.48480995	         -8.62016606	        -12.32703714	        -23.08095979	          7.87337452	          2.45745494	          0.65186469	          0.05000279	          0.05675518	          0.06900780	          0.23419267	          0.05000105	          0.05000025	          0.08803371	          0.12049341	          0.19688188	          0.06477392	          0.05000707	          0.14119594	          0.05000052	          0.05000114	          0.21287278	          0.05000117	          0.05000153	          0.27622813	
          1.63613160	         -4.79711351	          1.39514615	          0.67292081	         23.73001448	         -7.53722723	        -12.59968392	        -26.27851398	          7.72274351	          1.40105240	          0.97015583	          0.05351403	          0.09579417	          0.05874014	          0.21881316	          0.05000080	          0.05000012	          0.07493519	          0.10256504	          0.20210116	          0.05598507	          0.05000462	          0.14390913	          0.05000053	          0.05000156	          0.23408813	          0.05000098	          0.05000088	          0.28326350	
          1.64661963	         -4.82515032	          1.40556216	          0.67393312	         22.94010465	         -6.41562301	        -12.74434745	        -29.14450259	          7.64431794	          1.33626826	          1.21878727	          0.06979572	          0.11976059	          0.05000057	          0.20061979	          0.05000094	          0.05000012	          0.06378800	          0.08730429	          0.24091317	          0.05501352	          0.05000592	          0.13239292	          0.05000054	          0.05000155	          0.23740318	          0.05000106	          0.05000118	          0.27984498	
          1.65710765	         -4.85251615	          1.41556468	          0.67516368	         22.11168541	         -5.24531173	        -12.76373693	        -31.70776772	          7.63432116	          1.68296928	          1.40341820	          0.07810860	          0.14253500	          0.05000035	          0.18665740	          0.05000106	          0.05000013	          0.05708173	          0.07431420	          0.23369836	          0.05314117	          0.05000500	          0.11290678	          0.05000065	          0.05000221	          0.23016564	          0.05000109	          0.05000147	          0.27152640	
          1.66759567	         -4.87770479	          1.42519808	          0.67657016	         21.25767472	         -4.02843800	        -12.68757460	        -33.99197303	          7.66498398	          2.15797278	          1.53023972	          0.08731256	          0.17361895	          0.05000035	          0.17478674	          0.07409430	          0.05000013	          0.05938257	          0.06325695	          0.22262462	          0.05225266	          0.05000424	          0.10448665	          0.05000064	          0.05000280	          0.21765480	          0.05000110	          0.05000164	          0.26102021	
          1.67808369	         -4.89951986	          1.43451250	          0.67808395	         20.38271678	         -2.77318043	        -12.53171150	        -36.01183642	          7.71265145	          2.71788220	          1.60637236	          0.09343798	          0.20569832	          0.05000033	          0.16298970	          0.11581891	          0.05000014	          0.05939297	          0.05384498	          0.21015878	          0.05391576	          0.05000409	          0.10050135	          0.05000062	          0.05000279	          0.20297203	          0.05000107	          0.05000178	          0.25013928	
          1.68857172	         -4.91692917	          1.44355464	          0.67963500	         19.48898369	         -1.48710923	        -12.30812161	        -37.77576988	          7.76188784	          3.29170089	          1.63829724	          0.08878390	          0.24362287	          0.05000032	          0.15305371	          0.14716071	          0.05000016	          0.05645372	          0.05000033	          0.20205960	          0.05564357	          0.05000380	          0.10002519	          0.05000060	          0.05000293	          0.18848901	          0.05000103	          0.05000179	          0.24004317	
          1.69905974	         -4.92911966	          1.45236248	          0.68116011	         18.57929270	         -0.17433406	        -12.02887139	        -39.29028212	          7.80534093	          3.83212400	          1.63112943	          0.07558004	          0.28594461	          0.05000032	          0.14388302	          0.17077347	          0.05000017	          0.05177400	          0.05000040	          0.19841193	          0.05759105	          0.05000362	          0.10134523	          0.05000056	          0.05000282	          0.17588149	          0.05000098	          0.05000174	          0.23078933	
          1.70954776	         -4.93549314	          1.46096422	          0.68260643	         17.65613569	          1.16669162	        -11.70398916	        -40.57427313	          7.84233755	          4.33815853	          1.58851285	          0.06433643	          0.32885522	          0.05000031	          0.13603731	          0.18672138	          0.05000019	          0.05001204	          0.05000041	          0.19736095	          0.05835062	          0.05000341	          0.10191408	          0.05000054	          0.05000302	          0.16588578	          0.05000092	          0.05000164	          0.22203834	
          1.72003579	         -4.93561870	          1.46937843	          0.68393311	         16.72175274	          2.54429130	        -11.34126955	        -41.66571111	          7.87557967	          4.81760913	          1.51263437	          0.05476559	          0.36901208	          0.05000031	          0.12892971	          0.19592229	          0.05000021	          0.05000389	          0.05000040	          0.19851947	          0.05790102	          0.05000321	          0.10123928	          0.05000053	          0.05000340	          0.15854935	          0.05000086	          0.05000154	          0.21307046	
          1.73052381	         -4.92923537	          1.47761708	          0.68511232	         15.77759377	          3.97028752	        -10.94580851	        -42.61447949	          7.91005813	          5.27938891	          1.40478225	          0.05000231	          0.40367601	          0.05000030	          0.12277847	          0.19977262	          0.05000023	          0.05000312	          0.05000041	          0.20019427	          0.05589116	          0.05000301	          0.09780383	          0.05000053	          0.05000375	          0.15323431	          0.05000080	          0.05000151	          0.20296819	
